<svg width="400" height="400" xmlns="http://www.w3.org/2000/svg">
 <!-- Created with Method Draw - http://github.com/duopixel/Method-Draw/ -->
 <g>
  <title>background</title>
  <rect fill="#fff" id="canvas_background" height="402" width="402" y="-1" x="-1"/>
  <g display="none" overflow="visible" y="0" x="0" height="100%" width="100%" id="canvasGrid">
   <rect fill="url(#gridpattern)" stroke-width="0" y="0" x="0" height="100%" width="100%"/>
  </g>
 </g>
 <g>
  <title>Layer 1</title>
  <path stroke="#000" d="m112.696257,78.556599c0,0 0,0.880573 0,3.52229c0,2.641718 0,6.164008 0,11.447443c0,5.283435 0,7.925153 0,12.328016c0,4.402863 -0.473729,7.090063 0,10.56687c0.374518,2.748658 0.739356,5.283435 0.739356,7.925153c0,0.880573 0,1.761145 0,2.641718c0,0 0.216552,1.503232 0.739356,0.880573c0.522804,-0.622659 0.056284,-0.543593 0.739356,-0.880573c0.966016,-0.476565 1.59127,-1.087185 2.957425,-1.761145c0.966016,-0.476565 2.087754,-1.308759 3.696781,-1.761145c2.158738,-0.606946 3.628605,-0.436961 6.654205,-0.880573c2.20145,-0.322771 4.436137,0 7.393561,0c1.478712,0 4.436137,0 7.393561,0c2.218068,0 5.175493,-0.880573 7.393561,-0.880573c1.478712,0 3.696781,-0.880573 5.175493,-0.880573c1.478712,0 3.725425,-0.457418 5.914849,-0.880573c2.307859,-0.446044 5.175493,-0.880573 6.654205,-0.880573c1.478712,0 2.957425,0 3.696781,0c0.739356,0 1.478712,0 2.218068,0c0,0 0.739356,0 1.478712,0c0.739356,0 0.739356,0 1.478712,0c0,0 0.739356,0 0.739356,0c0,0 0,0 0,0c-0.739356,0.880573 -0.51203,1.044363 -1.478712,2.641718c-0.611377,1.010255 -0.969096,2.712387 -1.478712,5.283435c-0.379832,1.91635 -0.739356,4.402863 -0.739356,7.04458c0,3.52229 0,7.04458 0,12.328016c0,4.402863 0.739356,10.56687 0.739356,15.850306c0,4.402863 0,10.56687 0,14.969733c0,4.402863 0,8.805725 0,12.328016c0,1.761145 0.522793,2.899631 0,3.52229c-0.522793,0.622659 -0.739356,0 -0.739356,0c0,0 -0.739356,0 -1.478712,-0.880573c-0.739356,-0.880573 -1.025392,-1.688588 -2.957425,-2.641718c-2.73231,-1.34792 -5.914849,-0.880573 -9.61163,-0.880573c-5.175493,0 -10.38192,-0.256623 -16.265835,0.880573c-7.442625,1.438455 -17.665767,3.520073 -28.095533,4.402863c-8.849958,0.74907 -19.964398,0.849279 -31.052957,1.761145c-10.352712,0.851362 -15.557419,1.504522 -21.441328,2.641718c-3.721313,0.719227 -8.155075,0.450202 -11.090342,0.880573c-3.025605,0.443605 -5.914849,0.880573 -8.132917,0.880573c-1.478712,0 -2.957425,0 -3.696781,0c0,0 -0.739356,0 -0.739356,0c0,0.880573 0,1.761145 0.739356,3.52229c0.739356,1.761145 1.366307,4.473041 2.957425,7.925153c2.074565,4.501003 5.596559,13.3257 6.654205,16.730878c1.720766,5.540139 3.211133,9.577153 4.436137,14.089161c0.937914,3.454584 1.838231,5.128231 2.218068,7.04458c0.339736,1.714037 0,2.641718 0,3.52229c0,0 0,0 0.739356,0c1.478712,0 3.60514,-1.182745 7.393561,-2.641718c5.801147,-2.234109 12.530877,-3.767291 19.962615,-5.283435c5.152986,-1.051256 11.103361,-1.324191 16.265835,-1.761145c5.214889,-0.441401 8.905306,-0.67044 13.30841,-1.761145c2.984568,-0.739315 6.045694,-1.184532 9.61163,-2.641718c3.12753,-1.278037 7.366418,-2.782975 10.350986,-3.52229c4.403104,-1.090706 8.078055,-2.199282 11.829698,-2.641718c2.943029,-0.347077 7.34769,-1.319354 11.829698,-1.761145c3.684179,-0.363147 7.325386,-1.31754 10.350986,-1.761145c2.935267,-0.43037 3.696781,0 4.436137,0c0,0 0,0 0,0c0,0.880573 -1.232185,3.285674 -2.218068,7.04458c-1.558835,5.943367 -1.478712,14.089161 -1.478712,24.656031c0,12.328016 0,29.058894 0,43.148054c0,14.089161 0,27.297749 0,36.984047c0,6.164008 0,13.208588 0,17.611451c0,4.402863 -0.367873,7.859798 -0.739356,12.328016c-0.291428,3.505145 0,6.164008 0,7.925153c0,0.880573 -0.522793,1.138499 0,1.761145c0.522793,0.622646 0.739356,-0.880573 4.436137,-2.641718c3.696781,-1.761145 7.407844,-2.397443 8.872274,-2.641718c5.330571,-0.889172 9.619188,-2.423832 11.829698,-2.641718c4.482008,-0.441791 7.393561,-1.761145 11.090342,-1.761145c2.957425,0 5.175493,0 6.654205,0c1.478712,0 2.730776,-0.404008 3.696781,-0.880573c1.366144,-0.673973 1.695275,-0.257926 2.218068,-0.880573c0.522793,-0.622646 0.39962,-0.047108 0.739356,-1.761145c0.379832,-1.916336 0.739356,-5.283435 0.739356,-8.805725c0,-3.52229 -0.739356,-7.925153 -2.218068,-13.208588c-1.478712,-5.283435 -1.847465,-11.400523 -2.218068,-17.611451c-0.36688,-6.148502 0,-13.208588 0,-18.492023c0,-6.164008 0,-10.56687 0,-15.850306c0,-3.52229 -0.739356,-7.925153 -0.739356,-10.56687c0,-2.641718 0,-5.283435 0,-7.04458c0,-2.641718 0,-5.283435 0,-7.925153c0,-2.641718 -0.739356,-7.04458 -1.478712,-9.686298c-0.739356,-2.641718 -1.098881,-5.128231 -1.478712,-7.04458c-0.16988,-0.857018 0,-2.641718 0,-4.402863c0,-0.880573 0,-2.641718 0,-4.402863c0,-0.880573 0,-1.761145 0,-1.761145c0,-1.761145 -0.359525,-2.486513 -0.739356,-4.402863c-0.16988,-0.857018 0,-1.761145 -0.739356,-1.761145c0,0 0,0 0,0c0,0 0,0 1.478712,0c3.696781,0 6.61481,0.439171 11.829698,0.880573c2.212495,0.187264 8.132917,0 11.829698,0c2.957425,0 7.393561,0 11.090342,0c2.957425,0 7.393561,-0.880573 11.829698,-0.880573c3.696781,0 7.393561,0 10.350986,0c3.696781,0 7.393561,-0.880573 11.829698,-0.880573c2.218068,0 5.943482,0.423155 8.132917,0c2.307848,-0.446051 4.47569,-0.475947 5.914849,-0.880573c1.609016,-0.452393 3.696781,-0.880573 5.175493,-0.880573c2.218068,0 2.957425,-0.880573 4.436137,-0.880573c1.478712,0 2.996978,-0.475947 4.436137,-0.880573c1.609016,-0.452393 2.218068,-0.880573 2.957425,-0.880573c0.739356,0 1.478712,-0.880573 1.478712,-0.880573c0.739356,0 0.739356,0 0.739356,0c0,0 -0.739356,0 -1.478712,0.880573c0,0 -0.739356,0 -0.739356,0.880573c0,0 0,0.880573 0,0.880573c0,0.880573 0,1.761145 0,2.641718c0,0.880573 0,2.641718 0,5.283435c0,2.641718 0,7.925153 0,11.447443c0,4.402863 0,7.925153 0,14.089161c0,5.283435 0,11.447443 0,14.969733c0,5.283435 -0.739356,8.805725 -0.739356,11.447443c0,0.880573 -0.739356,2.641718 -1.478712,2.641718c-1.478712,0 -2.957425,0 -6.654205,0c-1.478712,0 -4.265558,-1.514129 -8.132917,-2.641718c-7.217319,-2.104339 -10.305114,-1.319354 -14.787123,-1.761145c-4.421019,-0.435772 -6.654205,0 -10.350986,0c-2.218068,0 -4.436137,0 -5.175493,0c-0.739356,0 -0.849781,-0.46294 -1.478712,0c-1.406329,1.035173 -1.838237,2.486526 -2.218068,4.402863c-0.509616,2.571042 -0.739356,6.164008 -0.739356,11.447443c0,3.52229 -0.849352,7.162364 0,11.447443c0.759686,3.8327 2.957425,7.04458 4.436137,9.686298c1.478712,2.641718 2.739666,5.588282 4.436137,7.04458c1.341189,1.151317 3.727331,1.626619 6.654205,2.641718c2.244806,0.778536 5.129622,2.199926 9.61163,2.641718c4.421019,0.435772 8.132917,0.880573 12.569054,0.880573c6.654205,0 9.655944,0.86074 15.526479,0c3.025611,-0.443619 7.34769,-1.319354 11.829698,-1.761145c3.68419,-0.363161 9.04186,-1.172896 11.829698,-2.641718c2.437903,-1.284446 3.936088,-3.099767 5.175493,-4.402863c1.998482,-2.101195 2.787003,-3.866586 4.436137,-7.04458c2.458368,-4.737458 2.618342,-9.583993 3.696781,-16.730878c1.18426,-7.848189 1.374876,-15.865032 2.218068,-23.775459c0.658421,-6.177014 0.739356,-11.447443 0.739356,-16.730878c0,-5.283435 0.228273,-8.868944 -0.739356,-13.208588c-0.600095,-2.691325 -0.739356,-5.283435 -0.739356,-7.925153c0,-1.761145 0.180665,-4.416057 0,-6.164008c-0.372476,-3.603487 -0.739356,-6.164008 -0.739356,-8.805725c0,-2.641718 -0.359525,-5.128231 -0.739356,-7.04458c-0.509616,-2.571055 -0.39962,-4.449971 -0.739356,-6.164008c-0.379832,-1.91635 -1.123407,-4.436978 -1.478712,-7.04458c-0.374507,-2.748658 -1.619395,-3.417956 -2.957425,-6.164008c-0.829813,-1.703019 -1.190849,-3.66254 -2.218068,-6.164008c-1.171219,-2.852106 -2.127612,-2.699844 -2.957425,-4.402863c-1.33803,-2.746052 -3.094948,-4.132131 -4.436137,-5.283435c-1.696471,-1.456298 -3.670043,-2.743741 -5.914849,-3.52229c-2.926874,-1.015098 -5.914849,-1.761145 -10.350986,-1.761145c-5.175493,0 -9.61163,0 -15.526479,0c-5.175493,0 -10.36863,-0.508409 -15.526479,0c-4.482008,0.441791 -8.132917,0.880573 -11.829698,0.880573c-3.696781,0 -7.406152,-0.363147 -11.090342,0c-4.482008,0.441791 -9.594888,0.964618 -12.569054,1.761145c-3.678143,0.985068 -6.684756,1.626619 -9.61163,2.641718c-2.244806,0.778549 -3.736334,1.356519 -5.175493,1.761145c-1.609016,0.452393 -2.957425,0.880573 -3.696781,0.880573c-0.739356,0 -1.478712,0 -2.218068,0c-0.739356,0 -2.434631,-0.622659 -2.957425,0c-0.522793,0.622659 -0.739356,0.880573 -0.739356,0.880573c0,0.880573 0.419453,-0.047673 0,-2.641718c-0.752939,-4.656463 -2.130342,-8.827922 -2.957425,-13.208588c-0.668801,-3.542243 -1.478712,-7.04458 -1.478712,-10.56687c0,-3.52229 -0.739356,-6.164008 -0.739356,-8.805725c0,-2.641718 0,-4.402863 0,-6.164008c0,-1.761145 0,-2.641718 0,-3.52229c0,-0.880573 0,-1.761145 0,-2.641718c0,-1.761145 0,-2.641718 0,-4.402863c0,-0.880573 0,-2.641718 0,-3.52229c0,-1.761145 0,-3.52229 0,-4.402863c0,-0.880573 0,-2.641718 0,-2.641718c0,-0.880573 0,-1.761145 0,-2.641718c0,0 0,-0.880573 0,-1.761145c0,0 0,0 0,-0.880573c0,0 0,0 0,0c0,0 0,-0.880573 0,-0.880573c0,0 0,0 0,0c-0.739356,-0.880573 -0.739356,-0.880573 -0.739356,-0.880573c0,0 0,0 0.739356,0c0,0 0,0 0.739356,0c0.739356,0 2.237157,0.282105 3.696781,0c2.307848,-0.446044 4.447215,-0.665387 5.914849,-0.880573c3.025611,-0.443612 4.36795,-1.317533 7.393561,-1.761145c1.467634,-0.215185 3.696781,0 5.175493,0c1.478712,0 2.957425,0 5.175493,0c1.478712,0 2.218068,0 2.957425,0c0.739356,0 0.739356,0 0.739356,0.880573c0,0 0,0 0,0c0,0.880573 0,0.880573 0,1.761145c0,0.880573 0,1.761145 0,3.52229c0,1.761145 0,3.52229 0,5.283435c0,2.641718 0,5.283435 0,8.805725c0,3.52229 -0.112952,7.961539 0.739356,11.447443c0.653683,2.673562 1.838237,6.008803 2.218068,7.925153c0.339736,1.714037 0.739356,2.641718 0.739356,3.52229c0,0 0,0.880573 0,0.880573c0,0 0,0.880573 0,0.880573c0,0 0,0.880573 0.739356,0.880573c0,0 0,0.880573 0,0.880573c0.739356,0 0.739356,0 1.478712,0c0.739356,0 2.696795,-0.856373 5.914849,-1.761145c0.719568,-0.202313 5.133841,-1.926991 7.393561,-2.641718c3.643689,-1.15246 7.441305,-1.936451 11.090342,-2.641718c4.615719,-0.892088 7.351729,-2.77181 11.090342,-4.402863c2.195392,-0.957792 3.82476,-1.63147 4.436137,-2.641718c0.966682,-1.597355 0.739356,-2.641718 0.739356,-5.283435c0,-1.761145 0,-6.164008 0,-8.805725c0,-4.402863 0.364263,-8.82715 0,-13.208588c-0.371483,-4.468204 -1.027016,-8.838712 -1.478712,-13.208588c-0.372476,-3.603493 -0.739356,-7.04458 -0.739356,-9.686298c0,-2.641718 0,-4.402863 0,-6.164008c0,-1.761145 -0.502486,-4.425604 -0.739356,-6.164008c-0.374507,-2.748658 -1.049038,-3.891128 -2.218068,-5.283435c-1.16903,-1.392307 -2.807333,-1.987016 -3.696781,-2.641718c-1.98887,-1.463957 -4.495478,-0.27363 -6.654205,-0.880573c-1.609016,-0.452389 -2.957425,-0.880573 -4.436137,-0.880573c-0.739356,0 -0.739356,0 -1.478712,0c0,0 0,-0.880573 0,-0.880573c-0.739356,0 -1.478712,0 -2.218068,0c-0.739356,0 -1.252063,-0.404011 -2.218068,-0.880573c-2.049227,-1.01094 -4.436137,0 -7.393561,0c-2.957425,0 -5.175493,0 -8.872274,0c-2.957425,0 -7.424496,-0.256627 -13.30841,0.880573c-3.721307,0.719227 -8.817399,1.318706 -12.569054,1.761145c-2.943029,0.347077 -4.436137,0 -5.914849,0c-0.739356,0 -0.739356,0 -0.739356,0c0,0 0,0 0,0c0,-2.641718 0,-6.164008 0,-9.686298c0,-4.402863 -0.265638,-7.970635 -0.739356,-11.447443c-0.374507,-2.748658 -0.173467,-4.536922 -0.739356,-6.164008c-0.400139,-1.150523 -0.456412,-1.828175 -0.739356,-2.641718c-0.400139,-1.150524 -0.739356,-1.761145 -1.478712,-2.641718c0,0 0.226649,-1.284583 -0.739356,-1.761145c-0.683083,-0.336981 -0.739356,-0.880573 -0.739356,-0.880573c-0.739356,0 -0.216563,-0.257914 -0.739356,-0.880573c-0.522793,-0.622659 -0.955919,0.622659 -1.478712,0c-0.522793,-0.622659 -0.739356,-0.880573 -1.478712,-0.880573c-0.739356,0 -1.478712,-0.880573 -2.218068,-0.880573c-1.478712,0 -3.696781,0 -5.914849,0c-2.218068,0 -4.436137,0 -5.914849,0c-2.218068,0 -3.696781,0 -5.175493,0c-1.478712,0 -2.957425,0 -3.696781,0c-1.478712,0 -2.218068,0 -2.957425,0c-0.739356,0 -1.478712,0 -2.218068,0c-0.739356,0 -2.218068,0 -2.957425,0c-0.739356,0 -1.478712,0 -2.218068,0c-0.739356,0 -2.218068,0 -2.957425,0c-0.739356,0 -1.478712,0 -2.218068,0c-0.739356,0 -1.478712,0 -1.478712,0c-0.739356,0 -0.739356,0 -0.739356,0.880573c0,0 0,0.880573 0,1.761145c0,1.761145 -0.565889,3.656349 0,5.283435c0.400139,1.150524 0.739356,2.641718 0.739356,4.402863c0,1.761145 0,3.52229 0,5.283435c0,1.761145 -0.359525,3.367089 -0.739356,5.283435c-0.16988,0.857015 0,2.641718 0,3.52229c0,2.641718 0,3.52229 0,4.402863c0,0.880573 0,0.880573 0,1.761145c0,0.880573 0,0.880573 0,0.880573c0,0.880573 0,0.880573 0,0.880573c0,0.880573 0,0.880573 0,0.880573c-0.739356,0 -1.497801,0.282105 -2.957425,0c-2.307848,-0.446047 -4.458294,-0.450209 -7.393561,-0.880573c-3.0256,-0.443608 -5.914849,-0.880573 -8.872274,-0.880573c-2.218068,0 -4.436137,0 -6.654205,0c-2.218068,0 -4.436137,0 -5.914849,0c-2.218068,0 -3.696781,0 -4.436137,0c-1.478712,0 -1.478712,0 -2.218068,0c-0.739356,0 -1.478712,0 -1.478712,0c-0.739356,0 -1.478712,0 -1.478712,0c0,0 -0.739356,0 -0.739356,0c0,0 -0.216552,-0.622659 -0.739356,0c-0.522804,0.622659 -0.739356,0.880573 -0.739356,0.880573c-0.739356,0 -1.478712,0 -2.218068,0c-0.739356,0 -1.478712,0 -1.478712,0c-1.478712,0 -1.478712,0 -2.218068,0c-0.739356,0 -1.478712,0 -1.478712,0c-0.739356,0 -0.739356,0 -1.478712,0c0,0 -0.739356,0 -1.478712,0c0,0 -0.739356,0 -1.478712,0c-1.478712,0 -2.218068,0 -3.696781,0c0,0 -0.739356,0 -0.739356,0c-0.739356,0 -0.739356,0 -1.478712,0c0,0 0,0 -0.739356,0l0,0l0,0" id="svg_9" fill-opacity="null" stroke-opacity="null" stroke-width="1.5" fill="none"/>
  <path transform="rotate(28.04340362548828 290.5,53.354225158691385) " stroke="#000" d="m303.104397,64.255323c0,0 -0.681319,0 -1.362637,0c-2.043956,0 -4.753803,-0.746344 -7.494506,-1.362637c-3.389419,-0.762167 -6.813187,-1.362637 -10.219781,-2.043956c-3.406594,-0.681319 -5.999464,-1.668148 -8.857143,-2.725275c-2.634662,-0.974624 -5.40568,-0.779629 -6.813187,-1.362637c-1.99052,-0.824499 -3.879055,-1.675229 -4.769231,-2.043956c-1.258905,-0.521459 -2.043956,-0.681319 -2.725275,-1.362637c0,0 -0.681319,-0.681319 -0.681319,-0.681319c0,-0.681319 -0.681319,-0.681319 -0.681319,-0.681319c0,-0.681319 0,-0.681319 0,-0.681319c0,0 0,-0.681319 0,-1.362637c0,0 0.31259,0.208867 0.681319,-0.681319c0.260734,-0.629456 0.733174,-1.101908 1.362637,-1.362637c0.890176,-0.368728 2.072109,-1.258553 4.769231,-2.043956c2.068595,-0.602377 4.114297,-1.71655 6.131868,-2.043956c2.126688,-0.345115 3.424828,-0.524784 4.087912,-0.681319c1.482712,-0.350023 2.725275,-0.681319 4.087912,-0.681319c1.362637,0 2.725275,0 4.769231,0c2.043956,0 3.406594,0 5.45055,0c2.043956,0 4.087912,0 6.131868,0c1.362637,0 4.087912,0 5.45055,0c2.043956,0 3.406594,0 5.45055,0c2.043956,0 3.461277,0.211714 5.45055,0.681319c1.482712,0.350023 2.095812,0.420589 2.725275,0.681319c0.890176,0.368727 1.153156,1.489368 2.043956,2.725275c0.563385,0.781657 1.675227,1.153771 2.043956,2.043956c0.260734,0.629456 0.420585,2.095818 0.681319,2.725275c0.368729,0.890185 0.681319,1.362637 0.681319,2.725275c0,0.681319 0,1.362637 -0.681319,2.043956c-0.681319,0.681319 -0.733174,1.101908 -1.362637,1.362637c-0.890176,0.368726 -1.943613,1.480571 -2.725275,2.043956c-1.235909,0.890792 -1.923881,1.693932 -3.406594,2.043956c-0.663084,0.156534 -2.080405,0.368248 -3.406594,0.681319c-1.482712,0.350024 -1.923881,1.012614 -3.406594,1.362637c-0.663084,0.156534 -1.362637,0 -2.043956,0c-0.681319,0 -0.681319,0 -1.362637,0l0,0l0,0" id="svg_10" fill-opacity="null" stroke-opacity="null" stroke-width="1.5" fill="none"/>
 </g>
</svg>